<svg xmlns="http://www.w3.org/2000/svg" xml:space="preserve" viewBox="0 0 2391 2055"><path fill="#7C808D" d="m2394 1513-17 1H16v-11h2364l13 1 1 9z"/><path fill="#BADA39" d="M1029 152c7-4 14-9 22-10 22-4 43 9 48 30 6 23-6 42-25 50-17 7-38 1-49-15l-6-8-159 40c2 25-9 43-33 54l18 69h11c35 0 66 27 70 61 4 35-19 68-53 76-20 4-39 1-57-11l-90 104c25 31 31 64 8 97-18 28-46 37-80 31l-28 85c26 15 37 36 33 66 45 16 90 30 136 45 10-17 24-28 44-29 13-1 24 3 34 10 18 14 30 42 9 73l144 147 7-3c19-9 41-3 52 14 12 17 10 40-5 54a42 42 0 0 1-53 4l-6-5-7-10c-7-16-6-30 3-45L874 978c-10 7-20 11-32 11-11 0-22-4-32-11l-85 88c17 26 15 50-5 72l64 92 7-2c20-5 38 3 48 21l3 5 2 10c1 14-3 27-14 36a42 42 0 0 1-67-17l-3-13c1-13 6-24 14-33l-64-92c-33 11-51 5-73-26l-54 14-2-11 53-15 1-21-8-4-74-28-161-63c1-4 3-7 5-9l201 77 41 16c25-32 52-32 78-17l84-87-9-22-1-22-136-44a58 58 0 0 1-77 28 57 57 0 0 1-32-64c2-13 9-24 19-32 14-12 31-16 50-13l28-85a79 79 0 0 1-46-83l-83-22 3-10 83 20a77 77 0 0 1 117-37l90-105a75 75 0 0 1-20-44l-7-1-85-3-119-2-22-2 1-11 232 6 7-23-29-19-141-87 6-9 169 104 35-25-18-68c-30 0-49-14-57-42h-7l-72 5-45 2v-11l123-8c4-27 19-43 46-49 0-30 1-60 3-89l10 1-2 87 28 12 4-6 63-62 6 8c-22 24-45 46-67 68l9 15 158-40c2-9 3-17 6-25l7-10z"/><path fill="#6B7483" d="m1244 1914-39-76-3-1v212h-73v-374h62c8-1 11 2 15 8l88 183 5 10 5-10 86-179c7-15 4-12 19-12h59v375h-73v-212l-2-1-69 136h-46c-5 0-6-4-7-7l-27-52z"/><path fill="#5D79B0" d="m243 1122-41-40c-21 9-40 7-55-13-13-18-9-37 4-54l-28-47c-28 3-44-4-52-23-7-14-7-35 15-54l-17-51c-24-1-41-12-46-37-4-18 6-34 28-46l-6-55c-27-11-38-25-37-45s14-34 37-40l7-55c-11-6-20-14-24-26-3-8-4-17-2-25 5-19 19-29 46-32l18-52c-17-15-24-33-15-54 8-19 24-25 53-23l30-46c-15-22-16-41-3-57s31-19 56-9l38-40c-4-10-7-21-3-33 3-9 7-16 14-21 17-13 34-12 57 3l48-30c-3-22 3-40 24-50s38-2 53 14l51-17c0-13 3-24 12-33 6-7 13-11 21-13 20-4 35 4 50 28l57-6c7-24 22-38 48-36 17 1 30 14 36 36l51 8c5 4 5 7 1 10l-52-5-2 6c-7 17-19 26-36 28-5 1-11-1-17-2l-11-5c-9-7-15-17-18-29l-55 6c-2 21-11 34-29 42l-12 3c-19-1-32-10-41-27l-49 17c3 21-2 37-19 48-11 7-22 7-34 5l-11-5-13-12-46 29c3 10 5 19 3 28-3 11-9 19-18 27l-10 5c-15 4-28 1-40-8l-38 38 8 20v11c-2 15-9 26-22 32-13 8-26 6-40 1l-29 46c9 8 15 16 16 28l1 12c-2 10-7 19-14 25-12 10-25 11-40 10l-18 50c2 2 3 3 5 3 15 9 21 23 20 40l-1 9-5 10a46 46 0 0 1-38 20l-6 51 23 15 7 9 1 4c9 25-2 47-28 56l-4 2 5 54c18 0 31 8 40 23l4 11v16l-4 11-21 23 16 47 18 1c6 1 11 3 17 6l9 8c7 9 9 18 9 28l-1 11-15 24 13 21 14 23c23-8 40-4 53 11 12 15 11 33-1 55l25 25 14 14-9 9z"/><path fill="#6A7382" d="M1032 1716c18 20 27 43 30 68 5 39 4 79 3 118-1 18-1 36-6 53-13 52-47 83-99 94-28 7-58 6-85-5-47-18-76-52-83-103-5-33-4-67-4-101 1-22 2-44 5-66 10-52 54-91 104-100 21-3 41-3 62 1 28 5 52 19 73 41m-170 175 4 47c4 25 20 41 45 47s47 0 64-20c11-13 13-28 15-43 3-40 3-79 0-119-1-10-3-20-7-29-8-22-30-37-57-36-32 0-55 19-60 50l-4 41v62z"/><path fill="#6C7483" d="M1618 1784v265h-73v-374h73v109z"/><path fill="#6D7584" d="M1224 334v140h-32v-89h-2l-5 8-21 43c-2 4-5 6-10 6h-15l-29-57h-2v89h-33V311h32l42 86c6-7 8-14 11-21l11-23 11-21 10-22h32v24zm416 385c-22 2-22 2-31-16a5191 5191 0 0 0-23-40v90h-30c-3-7-4-139-1-164l31-1 21 44 22 44 5-9 34-71c2-6 5-8 12-8h23v165h-32v-89l-2-1-29 56z"/><path fill="#6E7785" d="M981 663v90h-32V588h25c5 0 6 4 8 7l41 64 19 25v-95h33v165l-26-1c-2 0-5-3-6-5l-28-42-27-43-6-8-1 8z"/><path fill="#6B7482" d="M1996 390v85h-25c-5 0-6-4-8-7l-53-82-7-7v96h-32V310h25c3 1 5 3 7 6l30 47 30 45c2-9 1-16 1-24v-73h31l1 1v78z"/><path fill="#6E7685" d="M1450 588c11 1 20 0 30 2 28 6 44 33 37 63-3 10-10 18-19 25l-9 5 37 70-19 1h-19l-32-66h-22v65h-33V588h49m36 51c-1-12-7-19-16-21h-36v42h30c13 0 19-6 22-21z"/><path fill="#6C7483" d="M1464 475h-52V310c23 0 46-1 68 1 28 1 48 23 50 50v60c0 28-22 54-57 54h-9m-20-56v27h23c20 0 30-10 31-30v-48l-2-9c-2-11-9-17-19-19h-33v79z"/><path fill="#6D7584" d="m2163 723-25-44-20 24c-2 2-2 6-2 9v41h-31V588h31v35c0 11 0 22 2 34l6-7 45-55c4-5 8-7 14-7h31l-55 66c20 32 39 65 58 99h-35l-5-5-14-25zm-801-329v12h-64c-2 13 0 26-1 40h76v29h-107c-2-8-3-152-1-164h108v28l-75 1v37h64v17z"/><path fill="#6C7483" d="M1365 703c-2 28-26 53-63 52-12-1-24-4-34-11-12-9-20-20-22-35-3-24-3-49-1-73 2-25 25-50 61-49 20 0 38 8 50 26 6 9 9 19 9 30v60m-44 17c7-5 10-12 11-20l1-44c0-7-1-15-3-22-3-12-14-19-27-18s-23 9-25 21c-3 22-3 45 0 68 2 10 8 16 18 19 9 3 16 2 25-4z"/><path fill="#6D7584" d="m1737 722 48-133h26l60 164c-12 2-22 0-33 1l-11-29h-57l-11 28h-33l11-31m68-25h14l-20-59-20 59h26z"/><path fill="#6C7483" d="m1679 387 31-47-66-1v-28h104c1 12 2 24-6 36-20 29-39 60-58 90l-5 9h69v29h-107c-1-14-3-26 6-38 12-15 22-32 32-50z"/><path fill="#6C7583" d="M1224 594v23h-76v40h64c2 10 1 19 1 29h-65v67h-32V589l5-1h95c4 0 8-1 8 6z"/><path fill="#6E7785" d="M1203 1028c-7 1-9-3-11-7l-62-94-18-27-1 1-1 1v1l-1 122v2h-17V863l8-1c7-1 10 2 13 7l75 113 7 10c2-12 1-22 1-33v-96h16c2 7 3 147 1 164l-10 1z"/><path fill="#6D7584" d="M1922 754h-14V618h-43v-29h118v28h-42v137h-19z"/><path fill="#6F7785" d="M2028 862h40v17h-83v57h71v16h-71v59h83v16h-101V862h61zm-480 31 11-30h15l60 164h-19l-13-36h-71l-14 36h-19l50-134m5 33-17 48h61a43010666 43010666 0 0 1-31-83l-13 35zm295 29-30-92h19l41 129h2l42-129h19l-54 164h-15l-24-72z"/><path fill="#72939F" d="M770 58c3-3 3-6-1-10 4-1 6-5 8-8 10-16 24-22 42-19 17 2 30 15 34 32l1 13c-1 5-1 9-3 12-7 15-19 23-34 26h-11c-21-6-33-18-36-39v-7z"/><path fill="#BADA39" d="M973 1211c4 17 1 33-13 45a42 42 0 0 1-63-9l-5-12-1-5c-4-28 22-52 49-47 12 3 20 9 28 18l5 10z"/><path fill="#72939F" d="M428 1243a41 41 0 0 1-50 15c-18-8-28-27-25-46l2-8c2-4 3-7 6-10l21-16h12c28-1 48 27 40 54l-6 11z"/><path fill="#90B36F" d="M564 1281c-5 17-24 31-46 26-23-4-36-24-34-45 1-5 1-9 3-12 8-16 21-24 38-26l12 2c13 5 23 13 28 26 2 5 2 12 3 18l-4 11zM916 144l-6-9c-8-12-10-24-7-38l5-11c10-13 22-19 38-18 24 1 42 23 39 46l-2 9-6 11c-18 18-33 21-55 11l-6-1z"/><path fill="#72939F" d="m243 1123 9-10 7-5c31-15 63 8 61 38 0 7-3 13-5 20l-7 9c-8 7-17 11-28 12-27 1-51-27-40-56l3-8z"/><path fill="#90B36F" d="M706 1288c-2 13-7 23-18 30-25 16-59 3-64-30v-13c4-17 14-28 30-32s31 0 42 12c6 6 8 14 10 22v11z"/><path fill="#6B7483" d="M2012 751V589h31v164c-10 0-20 2-31-2zM908 698v55h-30c-2-7-3-153-1-164h31v109z"/><path fill="#6B7482" d="M1788 322v-11h32v163h-32V322zm-187 134v18h-32V310h29l2 1v1l1 144z"/><path fill="#6F7785" d="M1376 908v119h-18V879h-48v-16h113v15c-15 2-31 0-47 1v29zm320 28v91l-9 1h-9V879h-47v-16h112l1 15c-16 2-31 0-48 2v56z"/><path fill="#727A88" d="M1279 920v107l-9 1-8-1V863h17v57z"/><path fill="#6E7785" d="M1044 874v153h-17V863h17v11z"/><path fill="#6F7785" d="m1454 867 4-4 12-1c2 8 3 153 1 165l-6 1h-11V867z"/><path fill="#6E7785" d="M1774 972V863h17v164l-7 1h-9c-2-10-1-19-1-28v-28z"/><path fill="#637EB1" d="M624 1276v11c-20-1-39-3-59-6 0-3 1-7 4-11l55 6zm-138-26-2 11-55-18 6-11 51 18zm221 38v-11l53-6 3 11-56 6zm266-77-5-10 46-29 6 9-47 30zM907 86l-4 11-51-19 2-11 53 19zm-15 1150 5 10-52 18-2-11 49-17zm86-1102 5-10 46 28c-2 4-4 7-8 9l-43-27zM309 1176c1-4 3-6 6-9l45 27-5 10-46-28z"/><path fill="#90B36F" d="M474 526c26 11 40 32 43 60 1 5 0 9-1 15l-2 11c-6 14-13 26-25 34a69 69 0 0 1-92-9l-8-10c-6-12-10-23-9-37v-12c7-29 24-48 52-55 10-2 20-1 31-1l11 4z"/><path fill="#72939F" d="m554 428-2 6a58 58 0 0 1-65 43l-13-3c-6-4-12-7-17-12-13-11-18-27-19-45l2-10c5-18 15-32 33-40 32-14 71 4 79 39l2 11v11zm81-167-5 23-6 10c-5 5-10 10-15 13a58 58 0 0 1-89-52c3-26 16-42 40-51l12-2 24 2 10 4c14 10 25 23 28 41l1 12z"/><path fill="#90B36F" d="m392 991-6 8c-6 8-14 14-25 18l-12 3c-37-1-56-28-55-56l2-11a53 53 0 0 1 76-28l10 7c12 14 16 30 14 49l-4 10zm191 142c0 8 0 16-2 23-7 18-20 28-41 30h-12c-7-4-15-7-21-13a42 42 0 0 1-12-46c6-18 18-28 36-31 19-2 34 4 45 19l4 7 3 11z"/><path fill="#BCDA40" d="m294 964-139-23-5-1v-11l90 15 55 9-1 11zm302-760 51-113 4-10 11 4-56 123-10-4zM223 748l-116 40-5-10 117-41 4 11zM549 99l22 102-11 3-22-101 11-4zM346 226l37-85 11 4-38 84-10-3zM154 385l79-1 1 11-78 1-2-11zM81 630l53-38 7 8-53 38-7-8zm148-363c19-2 38-2 58-2l1 11-57 2c-2-4-2-7-2-11zm-87 561-39-12c0-4 1-7 3-11l39 13c0 4-2 7-3 10zm-10 65 21-24 9 7-21 24-9-7zm-1-337-28-12 4-10 28 11-4 11zm176-325-7-14 9-5c3 4 6 8 8 14l-10 5zm75 947a4107 4107 0 0 1-32-157c3-2 6-2 11-3l32 159-11 1zm146 9 11-1-3 39-11-1 3-37z"/><path fill="#90B36F" d="m398 894-1-4c-18-21-21-43-9-69l7-10c20-23 56-26 80-6 19 16 25 36 19 60-6 22-25 38-47 41-13 2-26-1-39-7l-10-5z"/><path fill="#5C79B0" d="m224 748-4-11c-6-26 10-53 39-58 16-2 29 3 41 14l8 9c7 15 8 31 1 47l-7 10c-9 8-19 14-31 15-21 1-36-7-47-26z"/><path fill="#BCDA40" d="m309 702-8-9 87-65 9 8-53 39-35 27zm-7 58 6-10 78 55 9 6-7 9-70-49-16-11zm96 134 10 5-26 32-9-6 25-31z"/><path fill="#5C79B0" d="M234 396v-12c3-20 13-34 32-39 8-2 16-1 26 0l11 4 13 14c6 7 8 16 8 27l-2 12c-6 17-18 27-35 31-9 2-17 0-26-3l-10-5c-8-8-15-17-17-29zm73-164 10-5c10-2 18-4 28-1l11 4c11 8 18 17 22 31v12c-2 14-8 26-20 34s-24 8-38 6l-12-5c-10-8-17-18-20-31v-12c2-14 8-24 19-33z"/><path fill="#BCDA40" d="m379 273-1-11 59-3c27-2 54-2 82-3l1 10-56 4-77 2-8 1zm-56 128 1-11 64 9 51 8c0 3 0 6-2 10l-24-2-90-14zm-15-92 11 4-16 35-10-3 15-36zm167 165 11 3-12 48c-4 0-7-1-11-4 3-16 8-31 12-47zm-255 92 131 11 28 2 1 11-61-4-98-9-1-11z"/><path fill="#5C79B0" d="M220 566v11l-2 6a45 45 0 0 1-72 21l-4-4-7-9c-5-11-6-22-4-34l5-11c3-4 6-9 10-12 13-11 28-13 46-7l11 6c10 8 16 19 17 33zm-58 310-9-8c-9-11-13-24-11-39l4-11c7-12 17-21 31-25 25-5 50 11 55 36 4 24-12 48-35 53-12 3-23 0-35-6z"/><path fill="#BCDA40" d="m203 532-10-5 58-101c3 0 6 2 10 4l-58 102z"/></svg>